<svg id="Capa_1" enable-background="new 0 0 512 512" height="512" viewBox="0 0 512 512" width="512" xmlns="http://www.w3.org/2000/svg"><g><path d="m512 256c0 60.93-21.29 116.88-56.83 160.84-46.93 58.04-118.72 95.16-199.17 95.16-33.76 0-66-6.54-95.52-18.42-12.38-4.98-24.27-10.9-35.6-17.67-18.67-11.16-35.8-24.63-50.99-40.01-6-6.06-11.69-12.43-17.06-19.06-35.54-43.96-56.83-99.91-56.83-160.84s21.29-116.88 56.83-160.84c5.37-6.64 11.06-13.01 17.06-19.08 25.14-25.44 55.57-45.64 89.51-58.81 28.72-11.15 59.94-17.27 92.6-17.27s63.88 6.12 92.6 17.27c42.04 16.31 78.69 43.41 106.57 77.89 35.54 43.96 56.83 99.91 56.83 160.84z" fill="#ffbb16"/><path d="m455.17 58.36v358.48c-46.93 58.04-118.72 95.16-199.17 95.16s-152.24-37.12-199.17-95.16v-358.48c0-22.69 18.4-41.09 41.09-41.09h316.16c22.69 0 41.09 18.4 41.09 41.09z" fill="#da4a54"/><path d="m114.98 17.27c-22.69 0-41.09 18.4-41.09 41.09v377.54c-6-6.06-11.69-12.43-17.06-19.06v-358.48c0-22.69 18.4-41.09 41.09-41.09z" fill="#ac3345"/><path d="m322.921 60.277h-190.93c-18.412 0-33.339 14.926-33.339 33.339v287.132c0 18.412 14.926 33.339 33.339 33.339h190.93c18.412 0 33.339-14.926 33.339-33.339v-287.132c0-18.413-14.926-33.339-33.339-33.339z" fill="#b1e4f9"/><path d="m146.322 414.086h-14.33c-18.42 0-33.34-14.93-33.34-33.34v-287.13c0-18.42 14.92-33.34 33.34-33.34h14.33c-18.41 0-33.34 14.92-33.34 33.34v287.13c0 18.41 14.93 33.34 33.34 33.34z" fill="#75cef9"/><path d="m323.77 458.53v10.16c0 13.74-11.14 24.89-24.89 24.89h-138.4c-12.38-4.98-24.27-10.9-35.6-17.67-.7-2.29-1.07-4.71-1.07-7.22v-10.16c0-13.75 11.14-24.9 24.89-24.9h150.18c13.75 0 24.89 11.15 24.89 24.9z" fill="#3d4951"/><path d="m424.981 245.978h-37.111c-8.996 0-16.29-7.293-16.29-16.29 0-8.996 7.293-16.29 16.29-16.29h37.111c8.996 0 16.29 7.293 16.29 16.29-.001 8.997-7.294 16.29-16.29 16.29z" fill="#3d4951"/><path d="m373.846 309.401v-37.111c0-8.996 7.293-16.29 16.29-16.29 8.996 0 16.29 7.293 16.29 16.29v37.111c0 8.996-7.293 16.29-16.29 16.29-8.997-.001-16.29-7.294-16.29-16.29z" fill="#f9f6f6"/><path d="m390.136 315.69c-3.468 0-6.29-2.821-6.29-6.29v-37.11c0-3.468 2.821-6.29 6.29-6.29s6.29 2.821 6.29 6.29v37.111c-.001 3.468-2.822 6.289-6.29 6.289z" fill="#3d4951"/><path d="m417.446 199.064h-22.041c-13.158 0-23.825-10.667-23.825-23.825v-22.041c0-13.158 10.667-23.825 23.825-23.825h22.041c13.158 0 23.825 10.667 23.825 23.825v22.041c-.001 13.158-10.667 23.825-23.825 23.825z" fill="#f9f6f6"/><path d="m395.405 189.064c-7.623 0-13.825-6.202-13.825-13.825v-22.041c0-7.623 6.202-13.824 13.825-13.824h22.041c7.623 0 13.825 6.202 13.825 13.824v22.041c0 7.623-6.202 13.825-13.825 13.825z" fill="#dfeaef"/><g fill="#75cef9"><path d="m325.41 160.607c4.073 0 7.374-3.302 7.374-7.374v-60.835c0-4.073-3.302-7.375-7.374-7.375h-39.378c-4.073 0-7.374 3.302-7.374 7.375v60.835c0 4.073 3.302 7.374 7.374 7.374h-38.887c4.073 0 7.374-3.302 7.374-7.374v-60.835c0-4.073-3.302-7.375-7.374-7.375h-39.378c-4.073 0-7.374 3.302-7.374 7.375v60.835c0 4.073 3.302 7.374 7.374 7.374h-38.887c4.073 0 7.374-3.302 7.374-7.374v-60.835c0-4.073-3.302-7.375-7.374-7.375h-39.378c-4.073 0-7.374 3.302-7.374 7.375v60.835c0 4.073 3.302 7.374 7.374 7.374h-24.227v12.163h250.985v-12.163z"/><path d="m325.41 264.492c4.073 0 7.374-3.302 7.374-7.374v-60.835c0-4.073-3.302-7.375-7.374-7.375h-39.378c-4.073 0-7.374 3.302-7.374 7.375v60.835c0 4.073 3.302 7.374 7.374 7.374h-38.887c4.073 0 7.374-3.302 7.374-7.374v-60.835c0-4.073-3.302-7.375-7.374-7.375h-39.378c-4.073 0-7.374 3.302-7.374 7.375v60.835c0 4.073 3.302 7.374 7.374 7.374h-38.887c4.073 0 7.374-3.302 7.374-7.374v-60.835c0-4.073-3.302-7.375-7.374-7.375h-39.378c-4.073 0-7.374 3.302-7.374 7.375v60.835c0 4.073 3.302 7.374 7.374 7.374h-24.227v12.163h250.985v-12.163z"/><path d="m325.41 368.377c4.073 0 7.374-3.302 7.374-7.374v-60.835c0-4.073-3.302-7.375-7.374-7.375h-39.378c-4.073 0-7.374 3.302-7.374 7.375v60.835c0 4.073 3.302 7.374 7.374 7.374h-38.887c4.073 0 7.374-3.302 7.374-7.374v-60.835c0-4.073-3.302-7.375-7.374-7.375h-39.378c-4.073 0-7.374 3.302-7.374 7.375v60.835c0 4.073 3.302 7.374 7.374 7.374h-38.887c4.073 0 7.374-3.302 7.374-7.374v-60.835c0-4.073-3.302-7.375-7.374-7.375h-39.378c-4.073 0-7.374 3.302-7.374 7.375v60.835c0 4.073 3.302 7.374 7.374 7.374h-24.227v12.163h250.985v-12.163z"/></g></g></svg>